HIERARCHY
ROOT hip
{
  OFFSET 0.00112043 5.09927 -9.65472
  CHANNELS 6 Xposition Yposition Zposition Zrotation Xrotation Yrotation
  JOINT abdomen
  {
    OFFSET 0 -1.186 -1.5018
    CHANNELS 3 Zrotation Xrotation Yrotation
    JOINT abdomen2
    {
      OFFSET 0 9.964 0.2134
      CHANNELS 3 Zrotation Xrotation Yrotation
      JOINT chest
      {
        OFFSET 0 13.134 -3.2573
        CHANNELS 3 Zrotation Xrotation Yrotation
        JOINT neck
        {
          OFFSET 0 20.686 -1.6905
          CHANNELS 3 Zrotation Xrotation Yrotation
          JOINT head
          {
            OFFSET 0 7.238 -0.1237
            CHANNELS 3 Zrotation Xrotation Yrotation
            End Site
            {
              OFFSET 0 0 0
            }
          }
        }
        JOINT lCollar
        {
          OFFSET 1.7069 20.075 5.0056
          CHANNELS 3 Zrotation Xrotation Yrotation
          JOINT lShldr
          {
            OFFSET 13.6458 -0.047 -4.849
            CHANNELS 3 Zrotation Xrotation Yrotation
            JOINT lForeArm
            {
              OFFSET 28.3255 -0.9759 2.2888
              CHANNELS 3 Zrotation Xrotation Yrotation
              JOINT lHand
              {
                OFFSET 22.1583 -0.53 10.8316
                CHANNELS 3 Zrotation Xrotation Yrotation
                JOINT lThumb1
                {
                  OFFSET 0.786 0.112 2.5817
                  CHANNELS 3 Zrotation Xrotation Yrotation
                  JOINT lThumb2
                  {
                    OFFSET 0.3601 -0.878 4.2331
                    CHANNELS 3 Zrotation Xrotation Yrotation
                    JOINT lThumb2_End
                    {
                      OFFSET 1.8127 -1.216 2.2227
                      CHANNELS 3 Zrotation Xrotation Yrotation
                      End Site
                      {
                        OFFSET 0.0181 -0.0122 0.0222
                      }
                    }
                  }
                }
                JOINT lCarpal1
                {
                  OFFSET 0.9571 1.114 1.7695
                  CHANNELS 3 Zrotation Xrotation Yrotation
                  JOINT lIndex1
                  {
                    OFFSET 4.1246 0.487 4.1451
                    CHANNELS 3 Zrotation Xrotation Yrotation
                    JOINT lIndex2
                    {
                      OFFSET 3.4052 -1.454 2.7682
                      CHANNELS 3 Zrotation Xrotation Yrotation
                      JOINT lIndex2_End
                      {
                        OFFSET 1.4531 -1.795 1.2713
                        CHANNELS 3 Zrotation Xrotation Yrotation
                        End Site
                        {
                          OFFSET 0.0145 -0.0179 0.0127
                        }
                      }
                    }
                  }
                  JOINT lMid1
                  {
                    OFFSET 5.6954 0.21 2.1184
                    CHANNELS 3 Zrotation Xrotation Yrotation
                    JOINT lMid2
                    {
                      OFFSET 3.9766 -1.54 2.3863
                      CHANNELS 3 Zrotation Xrotation Yrotation
                      JOINT lMid2_End
                      {
                        OFFSET 1.4042 -1.926 1.125
                        CHANNELS 3 Zrotation Xrotation Yrotation
                        End Site
                        {
                          OFFSET 0.014 -0.0193 0.0113
                        }
                      }
                    }
                  }
                }
                JOINT lCarpal2
                {
                  OFFSET 2.0956 0.66 -0.3894
                  CHANNELS 3 Zrotation Xrotation Yrotation
                  JOINT lRing1
                  {
                    OFFSET 5.0395 -0.09 2.4971
                    CHANNELS 3 Zrotation Xrotation Yrotation
                    JOINT lRing2
                    {
                      OFFSET 3.7921 -1.552 1.4806
                      CHANNELS 3 Zrotation Xrotation Yrotation
                      JOINT lRing2_End
                      {
                        OFFSET 1.4655 -1.808 0.9609
                        CHANNELS 3 Zrotation Xrotation Yrotation
                        End Site
                        {
                          OFFSET 0.0147 -0.0181 0.0096
                        }
                      }
                    }
                  }
                  JOINT lPinky1
                  {
                    OFFSET 4.9141 -1.269 0.3591
                    CHANNELS 3 Zrotation Xrotation Yrotation
                    JOINT lPinky2
                    {
                      OFFSET 3.1477 -1.685 0.8462
                      CHANNELS 3 Zrotation Xrotation Yrotation
                      JOINT lPinky2_End
                      {
                        OFFSET 0.8055 -1.585 0.7955
                        CHANNELS 3 Zrotation Xrotation Yrotation
                        End Site
                        {
                          OFFSET 0.0081 -0.0158 0.008
                        }
                      }
                    }
                  }
                }
              }
            }
          }
        }
        JOINT rCollar
        {
          OFFSET -1.7069 20.075 5.0056
          CHANNELS 3 Zrotation Xrotation Yrotation
          JOINT rShldr
          {
            OFFSET -13.6458 -0.047 -4.849
            CHANNELS 3 Zrotation Xrotation Yrotation
            JOINT rForeArm
            {
              OFFSET -28.3255 -0.9759 2.2888
              CHANNELS 3 Zrotation Xrotation Yrotation
              JOINT rHand
              {
                OFFSET -22.1583 -0.53 10.8316
                CHANNELS 3 Zrotation Xrotation Yrotation
                JOINT rThumb1
                {
                  OFFSET -0.786 0.112 2.5817
                  CHANNELS 3 Zrotation Xrotation Yrotation
                  JOINT rThumb2
                  {
                    OFFSET -0.3601 -0.878 4.2331
                    CHANNELS 3 Zrotation Xrotation Yrotation
                    JOINT rThumb2_End
                    {
                      OFFSET -1.8127 -1.216 2.2227
                      CHANNELS 3 Zrotation Xrotation Yrotation
                      End Site
                      {
                        OFFSET -0.0181 -0.0122 0.0222
                      }
                    }
                  }
                }
                JOINT rCarpal1
                {
                  OFFSET -0.9571 1.114 1.7695
                  CHANNELS 3 Zrotation Xrotation Yrotation
                  JOINT rIndex1
                  {
                    OFFSET -4.1246 0.487 4.1451
                    CHANNELS 3 Zrotation Xrotation Yrotation
                    JOINT rIndex2
                    {
                      OFFSET -3.4052 -1.454 2.7682
                      CHANNELS 3 Zrotation Xrotation Yrotation
                      JOINT rIndex2_End
                      {
                        OFFSET -1.4531 -1.795 1.2713
                        CHANNELS 3 Zrotation Xrotation Yrotation
                        End Site
                        {
                          OFFSET -0.0145 -0.018 0.0127
                        }
                      }
                    }
                  }
                  JOINT rMid1
                  {
                    OFFSET -5.6954 0.21 2.1184
                    CHANNELS 3 Zrotation Xrotation Yrotation
                    JOINT rMid2
                    {
                      OFFSET -3.9766 -1.54 2.3863
                      CHANNELS 3 Zrotation Xrotation Yrotation
                      JOINT rMid2_End
                      {
                        OFFSET -1.4042 -1.926 1.125
                        CHANNELS 3 Zrotation Xrotation Yrotation
                        End Site
                        {
                          OFFSET -0.014 -0.0193 0.0113
                        }
                      }
                    }
                  }
                }
                JOINT rCarpal2
                {
                  OFFSET -2.0956 0.66 -0.3894
                  CHANNELS 3 Zrotation Xrotation Yrotation
                  JOINT rRing1
                  {
                    OFFSET -5.0395 -0.09 2.4971
                    CHANNELS 3 Zrotation Xrotation Yrotation
                    JOINT rRing2
                    {
                      OFFSET -3.7921 -1.552 1.4806
                      CHANNELS 3 Zrotation Xrotation Yrotation
                      JOINT rRing2_End
                      {
                        OFFSET -1.4655 -1.808 0.9609
                        CHANNELS 3 Zrotation Xrotation Yrotation
                        End Site
                        {
                          OFFSET -0.0147 -0.0181 0.0096
                        }
                      }
                    }
                  }
                  JOINT rPinky1
                  {
                    OFFSET -4.9141 -1.269 0.3592
                    CHANNELS 3 Zrotation Xrotation Yrotation
                    JOINT rPinky2
                    {
                      OFFSET -3.1477 -1.685 0.8462
                      CHANNELS 3 Zrotation Xrotation Yrotation
                      JOINT rPinky2_End
                      {
                        OFFSET -0.8055 -1.585 0.7955
                        CHANNELS 3 Zrotation Xrotation Yrotation
                        End Site
                        {
                          OFFSET -0.0081 -0.0158 0.008
                        }
                      }
                    }
                  }
                }
              }
            }
          }
        }
      }
    }
  }
  JOINT lThigh
  {
    OFFSET 8.367 -8.2066 0.5982
    CHANNELS 3 Zrotation Xrotation Yrotation
    JOINT lShin
    {
      OFFSET 2.1923 -43.463 -0.4932
      CHANNELS 3 Zrotation Xrotation Yrotation
      JOINT lFoot
      {
        OFFSET 0.7333 -45.8593 -2.6451
        CHANNELS 3 Zrotation Xrotation Yrotation
        End Site
        {
          OFFSET 2.6618 -4.2699 12.3931
        }
      }
    }
  }
  JOINT rThigh
  {
    OFFSET -8.367 -8.2066 0.5982
    CHANNELS 3 Zrotation Xrotation Yrotation
    JOINT rShin
    {
      OFFSET -2.1923 -43.463 -0.4931
      CHANNELS 3 Zrotation Xrotation Yrotation
      JOINT rFoot
      {
        OFFSET -0.7333 -45.8593 -2.6451
        CHANNELS 3 Zrotation Xrotation Yrotation
        End Site
        {
          OFFSET -2.6618 -4.2699 12.3931
        }
      }
    }
  }
}
MOTION
Frames:	4
Frame Time:	0.0333333
1.03941 53.478 20.1628 0 23.0235 -0 0.332192 2.39002 -0.503043 0.68629 4.77698 -1.02129 0.68629 4.77698 -1.02129 -2.74873e-005 2.20419 8.54485e-006 -2.71984e-007 -0.885737 -3.52793e-007 -21.7986 29.9858 -5.04602 -80.4454 -52.3869 -49.3715 -90.6093 4.64001 6.56955 142.314 20.2205 -87.1075 -3.53113e-031 3.18055e-015 6.36111e-015 -4.60229e-007 6.82828e-007 2.15517e-007 0 1.11319e-014 -0 3.18055e-015 -1.59028e-015 3.18055e-015 3.18055e-015 3.18055e-015 1.59028e-014 -4.60229e-007 6.82828e-007 2.15517e-007 -6.36111e-015 6.36111e-015 6.36111e-015 3.18055e-015 3.18055e-015 1.59028e-014 -4.60229e-007 6.82828e-007 2.15517e-007 -6.36111e-015 6.36111e-015 6.36111e-015 3.18055e-015 -1.59028e-015 3.18055e-015 3.18055e-015 3.18055e-015 1.59028e-014 -4.60229e-007 6.82828e-007 2.15517e-007 -6.36111e-015 6.36111e-015 6.36111e-015 3.18055e-015 3.18055e-015 1.59028e-014 -4.60229e-007 6.82828e-007 2.15517e-007 -6.36111e-015 6.36111e-015 6.36111e-015 20.928 27.974 5.25221 80.6537 -52.3351 50.3733 88.4104 3.82833 -6.66172 -143.13 21.2869 92.4764 3.18055e-015 1.59028e-015 -6.36111e-015 -3.18055e-015 -3.18055e-015 -6.36111e-015 3.18055e-015 3.18055e-015 -0 6.36111e-015 3.18055e-015 -0 6.36111e-015 -4.77083e-015 1.27222e-014 -3.18055e-015 3.18055e-015 -9.54166e-015 -3.18055e-015 -3.18055e-015 -9.54166e-015 6.36111e-015 -4.77083e-015 1.27222e-014 -3.18055e-015 3.18055e-015 -9.54166e-015 -3.18055e-015 -3.18055e-015 -9.54166e-015 6.36111e-015 3.18055e-015 -0 6.36111e-015 -4.77083e-015 1.27222e-014 -3.18055e-015 3.18055e-015 -9.54166e-015 -3.18055e-015 -3.18055e-015 -9.54166e-015 6.36111e-015 -4.77083e-015 1.27222e-014 -3.18055e-015 3.18055e-015 -9.54166e-015 -3.18055e-015 -3.18055e-015 -9.54166e-015 129.45 -65.3752 131.453 161.538 80.8261 -157.829 6.93043 -6.56884 9.15741 -127.927 -64.5922 -128.314 -159.218 81.7261 155.561 -5.21198 -5.16521 -7.7999 
1.03927 53.4248 20.0079 0 23.55 -0 0.333628 2.25982 -0.501167 0.687845 4.51657 -1.01669 0.687845 4.51658 -1.01669 -3.54281e-005 1.49141 1.83117e-005 -4.55742e-007 -1.77439 2.36307e-007 -21.7986 29.9858 -5.04603 -80.4454 -52.3869 -49.3715 -90.7887 4.69005 6.60338 142.45 20.3539 -87.0354 -3.18055e-015 -6.36111e-015 3.18055e-015 4.60367e-007 -6.82749e-007 -2.1561e-007 -3.18055e-015 -7.95139e-015 1.27222e-014 -2.64834e-031 -4.77083e-015 -3.18055e-015 -4.76702e-030 1.43125e-014 1.90833e-014 4.60367e-007 -6.82749e-007 -2.1561e-007 -3.18055e-015 -4.77083e-015 -3.18055e-015 -4.76702e-030 1.43125e-014 1.90833e-014 4.60367e-007 -6.82749e-007 -2.1561e-007 -3.18055e-015 -4.77083e-015 -3.18055e-015 -2.64834e-031 -4.77083e-015 -3.18055e-015 -4.76702e-030 1.43125e-014 1.90833e-014 4.60367e-007 -6.82749e-007 -2.1561e-007 -3.18055e-015 -4.77083e-015 -3.18055e-015 -4.76702e-030 1.43125e-014 1.90833e-014 4.60367e-007 -6.82749e-007 -2.1561e-007 -3.18055e-015 -4.77083e-015 -3.18055e-015 20.928 27.974 5.25224 80.6538 -52.3351 50.3733 88.5856 3.87844 -6.69079 -143.271 21.4238 92.4115 9.54166e-015 1.59028e-015 9.54166e-015 3.18055e-015 1.59028e-015 3.18055e-015 9.54166e-015 1.59028e-015 3.18055e-015 9.54166e-015 1.59028e-015 6.36111e-015 -0 0 3.18055e-015 -3.18055e-015 -3.18055e-015 6.36111e-015 1.76556e-031 -1.59028e-015 6.36111e-015 -0 0 3.18055e-015 -3.18055e-015 -3.18055e-015 6.36111e-015 1.76556e-031 -1.59028e-015 6.36111e-015 9.54166e-015 1.59028e-015 6.36111e-015 -0 0 3.18055e-015 -3.18055e-015 -3.18055e-015 6.36111e-015 1.76556e-031 -1.59028e-015 6.36111e-015 -0 0 3.18055e-015 -3.18055e-015 -3.18055e-015 6.36111e-015 1.76556e-031 -1.59028e-015 6.36111e-015 131.216 -65.2634 133.028 161.534 80.8261 -157.816 6.70581 -6.25468 9.48814 -129.62 -64.5116 -129.814 -159.214 81.7261 155.547 -4.98046 -4.8609 -8.1409 
1.03912 53.3711 19.8529 0 24.0763 -0 0.335056 2.12959 -0.499272 0.689399 4.25614 -1.01206 0.689399 4.25613 -1.01205 -2.73245e-005 0.777599 -5.7283e-006 -2.92663e-007 -2.66402 -1.53313e-007 -21.7986 29.9859 -5.04601 -80.4454 -52.3869 -49.3715 -90.9682 4.74 6.6374 142.585 20.4874 -86.9636 9.21013e-007 -1.36534e-006 -4.31405e-007 0 0 -0 1.76556e-031 -3.18055e-015 3.18055e-015 -6.36111e-015 4.77083e-015 -9.54166e-015 9.21013e-007 -1.36534e-006 -4.31405e-007 8.82781e-032 -1.59028e-015 3.18055e-015 -1.76556e-031 -1.59028e-015 -6.36111e-015 9.21013e-007 -1.36534e-006 -4.31405e-007 8.82781e-032 -1.59028e-015 3.18055e-015 -1.76556e-031 -1.59028e-015 -6.36111e-015 -6.36111e-015 4.77083e-015 -9.54166e-015 9.21013e-007 -1.36534e-006 -4.31405e-007 8.82781e-032 -1.59028e-015 3.18055e-015 -1.76556e-031 -1.59028e-015 -6.36111e-015 9.21013e-007 -1.36534e-006 -4.31405e-007 8.82781e-032 -1.59028e-015 3.18055e-015 -1.76556e-031 -1.59028e-015 -6.36111e-015 20.9281 27.9741 5.25218 80.6538 -52.3351 50.3733 88.7608 3.92845 -6.72 -143.412 21.5608 92.3469 0 0 -9.54166e-015 6.36111e-015 -1.59028e-015 -6.36111e-015 -1.76556e-031 -1.59028e-015 -6.36111e-015 -6.36111e-015 0 -6.36111e-015 3.18055e-015 -6.36111e-015 -0 3.18055e-015 -3.18055e-015 3.18055e-015 6.36111e-015 0 -0 3.18055e-015 -6.36111e-015 -0 3.18055e-015 -3.18055e-015 3.18055e-015 6.36111e-015 0 -0 -6.36111e-015 0 -6.36111e-015 3.18055e-015 -6.36111e-015 -0 3.18055e-015 -3.18055e-015 3.18055e-015 6.36111e-015 0 -0 3.18055e-015 -6.36111e-015 -0 3.18055e-015 -3.18055e-015 3.18055e-015 6.36111e-015 0 -0 132.964 -65.131 134.585 161.531 80.826 -157.803 6.47913 -5.9419 9.81968 -131.301 -64.4116 -131.303 -159.21 81.7259 155.535 -4.74686 -4.55819 -8.48274 
1.03896 53.3168 19.698 0 24.6026 -0 0.336485 1.99939 -0.49737 0.690966 3.99574 -1.00741 0.690967 3.99574 -1.00741 -9.94445e-006 0.0632776 -1.18278e-005 8.30094e-008 -3.5545 -1.38598e-007 -21.7986 29.9859 -5.04601 -80.4454 -52.3869 -49.3715 -91.1476 4.78983 6.67157 142.721 20.6211 -86.892 6.36111e-015 -3.18055e-015 -0 -4.60648e-007 6.82585e-007 2.15794e-007 3.18055e-015 -1.59028e-015 3.18055e-015 6.36111e-015 1.59028e-015 -0 3.18055e-015 6.36111e-015 9.54166e-015 -4.60648e-007 6.82585e-007 2.15794e-007 -2.64834e-031 -4.77083e-015 -3.18055e-015 3.18055e-015 6.36111e-015 9.54166e-015 -4.60648e-007 6.82585e-007 2.15794e-007 -2.64834e-031 -4.77083e-015 -3.18055e-015 6.36111e-015 1.59028e-015 -0 3.18055e-015 6.36111e-015 9.54166e-015 -4.60648e-007 6.82585e-007 2.15794e-007 -2.64834e-031 -4.77083e-015 -3.18055e-015 3.18055e-015 6.36111e-015 9.54166e-015 -4.60648e-007 6.82585e-007 2.15794e-007 -2.64834e-031 -4.77083e-015 -3.18055e-015 20.9281 27.9741 5.25217 80.6538 -52.3351 50.3733 88.9361 3.97837 -6.74927 -143.553 21.6979 92.2826 6.36111e-015 1.59028e-015 3.18055e-015 3.18055e-015 1.59028e-015 -0 -4.58911e-007 -6.86956e-007 2.07392e-007 3.18055e-015 1.59028e-015 3.18055e-015 3.18055e-015 1.59028e-015 -3.18055e-015 -3.18055e-015 -4.77083e-015 -0 -4.58911e-007 -6.86956e-007 2.07392e-007 3.18055e-015 1.59028e-015 -3.18055e-015 -3.18055e-015 -4.77083e-015 -0 -4.58911e-007 -6.86956e-007 2.07392e-007 3.18055e-015 1.59028e-015 3.18055e-015 3.18055e-015 1.59028e-015 -3.18055e-015 -3.18055e-015 -4.77083e-015 -0 -4.58911e-007 -6.86956e-007 2.07392e-007 3.18055e-015 1.59028e-015 -3.18055e-015 -3.18055e-015 -4.77083e-015 -0 -4.58911e-007 -6.86956e-007 2.07392e-007 134.692 -64.9783 136.122 161.528 80.8255 -157.792 6.25039 -5.63071 10.152 -132.967 -64.2922 -132.776 -159.208 81.7254 155.523 -4.51119 -4.25699 -8.82542 
